<svg id="Calque_1" data-name="Calque 1" xmlns="http://www.w3.org/2000/svg" viewBox="0 0 2000 2000"><defs><style>.cls-1{fill:#ea8c1b;}.cls-2{fill:#fbfbfb;}</style></defs><path class="cls-1" d="M1354.07,1126.87l11.2-44.4,183.44-163.94H1406l10-44.4h215.8l-10,44.4-183.43,163.94h142.76l-11.2,44.4Z"/><path class="cls-2" d="M655,967.36l-5.78,25H763.13l5.8-25Zm-14.33,62-5.8,24.77H748.78l5.8-24.77Z"/><polygon class="cls-2" points="781.42 913.2 775.64 937.96 623.84 937.96 594.9 1054.17 563.42 1054.17 592.36 937.96 547.92 937.96 553.46 913.2 781.42 913.2"/><path class="cls-2" d="M1283.72,913.2q10.65,0,17.71,3.82a27,27,0,0,1,10.77,10.18,34.31,34.31,0,0,1,4.39,14.47,55.87,55.87,0,0,1-1.15,16.67q-3.95,16.67-13.08,28.24a44.16,44.16,0,0,1-24.43,15.51l28.24,52.09h-37.73l-43.52-72.69h39.82a13,13,0,0,0,7.06-2.32,32.55,32.55,0,0,0,6.6-5.67,42.42,42.42,0,0,0,5.2-7.18,25.34,25.34,0,0,0,2.9-6.83,16,16,0,0,0,.46-5.67,24.5,24.5,0,0,0-1.27-6.36,13,13,0,0,0-3.13-5.09,6.92,6.92,0,0,0-5.09-2.09h-84l6.25-27.08Z"/><path class="cls-2" d="M373.68,1029.4h85.65a12.79,12.79,0,0,0,5.78-1.5,25,25,0,0,0,5.68-3.94,28.47,28.47,0,0,0,4.51-5.21,18.11,18.11,0,0,0,2.55-5.55,17,17,0,0,0-1-11.92q-2.67-5.44-9.38-5.44H419.05a32.58,32.58,0,0,1-15.39-3.36,25.49,25.49,0,0,1-10-9,31.19,31.19,0,0,1-4.51-13,42.49,42.49,0,0,1,.92-15.16,55.4,55.4,0,0,1,7.41-16.79,56.16,56.16,0,0,1,27.55-22.1,49.31,49.31,0,0,1,17.59-3.24h86.81L523.91,938H435.49a10.31,10.31,0,0,0-5.44,1.62,21.25,21.25,0,0,0-5,4.28,30.61,30.61,0,0,0-3.93,5.67,24.74,24.74,0,0,0-2.32,5.79,12.17,12.17,0,0,0-.23,5.32,15.55,15.55,0,0,0,1.74,5.1,13.66,13.66,0,0,0,3,3.81,5.42,5.42,0,0,0,3.59,1.51h49.77a33.19,33.19,0,0,1,15.63,3.47,29.23,29.23,0,0,1,10.53,9.14,30.06,30.06,0,0,1,5,13.2,41.42,41.42,0,0,1-1,15.86,55.94,55.94,0,0,1-5.78,14.12,61.67,61.67,0,0,1-10.19,13.42,55.83,55.83,0,0,1-13.43,10,32.21,32.21,0,0,1-15.27,3.93H367.43Z"/><path class="cls-2" d="M811.87,913.2h31.48l-28.24,116.2h72L860,1054.17H777.37Z"/><path class="cls-2" d="M936.66,913.2h31.48L939.9,1029.4h72l-27.08,24.77H902.17Z"/><path class="cls-2" d="M1129.43,992.37H1072l-15,61.8h-31.48l34.49-141h89.13q7.4.22,16.43,10.64a34.81,34.81,0,0,1,5.56,14.59q.69,4.86-.47,14.58l-24.76,101.16h-31.26Zm6.25-24.77,5.78-23.8q.93-6.06-6-5.83h-50l-7.18,29.63Z"/></svg>