<svg id="Calque_1" data-name="Calque 1" xmlns="http://www.w3.org/2000/svg" viewBox="0 0 1057.83 283.34"><defs><style>.cls-1{fill:#fbfbfb;}.cls-2{fill:#ea8c1b;}</style></defs><path class="cls-1" d="M290.85,238.42l-5.54,24H394.52l5.56-24Zm-13.74,59.5-5.56,23.74h109.2l5.57-23.74Z" transform="translate(-15.08 -38.33)"/><polygon class="cls-1" points="396.97 148.16 391.43 171.9 245.87 171.9 218.12 283.33 187.93 283.33 215.69 171.9 173.07 171.9 178.38 148.16 396.97 148.16"/><path class="cls-1" d="M893.7,186.49q10.21,0,17,3.66A25.8,25.8,0,0,1,921,199.92a32.81,32.81,0,0,1,4.21,13.87,53.53,53.53,0,0,1-1.1,16q-3.78,16-12.55,27.08a42.37,42.37,0,0,1-23.42,14.88l27.08,49.94H879.05L837.32,252H875.5a12.44,12.44,0,0,0,6.77-2.22,30.86,30.86,0,0,0,6.33-5.44,40.44,40.44,0,0,0,5-6.88,24.59,24.59,0,0,0,2.78-6.55,15.47,15.47,0,0,0,.44-5.44,23.42,23.42,0,0,0-1.22-6.1,12.57,12.57,0,0,0-3-4.88,6.65,6.65,0,0,0-4.89-2H807.13l6-26Z" transform="translate(-15.08 -38.33)"/><path class="cls-1" d="M21.08,297.92h82.13a12.28,12.28,0,0,0,5.54-1.45,23.82,23.82,0,0,0,5.44-3.77,27.29,27.29,0,0,0,4.33-5,17.08,17.08,0,0,0,2.44-5.32A16.31,16.31,0,0,0,120,271q-2.56-5.22-9-5.22H64.58a31.24,31.24,0,0,1-14.76-3.22,24.54,24.54,0,0,1-9.54-8.65A30,30,0,0,1,36,241.42a40.58,40.58,0,0,1,.89-14.53,52.9,52.9,0,0,1,7.1-16.1,53.94,53.94,0,0,1,26.41-21.2,47.35,47.35,0,0,1,16.87-3.1h83.24l-5.33,23.75H80.34a10,10,0,0,0-5.21,1.55,20.47,20.47,0,0,0-4.78,4.11,29.25,29.25,0,0,0-3.77,5.44,24.07,24.07,0,0,0-2.22,5.55,11.78,11.78,0,0,0-.22,5.1,15,15,0,0,0,1.67,4.89,13.21,13.21,0,0,0,2.88,3.66A5.21,5.21,0,0,0,72.13,242h47.73a31.78,31.78,0,0,1,15,3.33,27.85,27.85,0,0,1,10.1,8.77,28.88,28.88,0,0,1,4.77,12.65,40,40,0,0,1-1,15.2,53.54,53.54,0,0,1-5.55,13.54,58.9,58.9,0,0,1-9.77,12.88,53.75,53.75,0,0,1-12.87,9.54,30.83,30.83,0,0,1-14.65,3.78H15.08Z" transform="translate(-15.08 -38.33)"/><path class="cls-1" d="M441.25,186.49h30.19L444.36,297.92h69l-26,23.75H408.17Z" transform="translate(-15.08 -38.33)"/><path class="cls-1" d="M560.91,186.49h30.18L564,297.92h69l-26,23.75H527.84Z" transform="translate(-15.08 -38.33)"/><path class="cls-1" d="M745.75,262.4h-55l-14.43,59.27H646.09l33.07-135.18h85.46q7.11.21,15.76,10.21a33.34,33.34,0,0,1,5.33,14q.66,4.66-.44,14l-23.75,97h-30Zm6-23.75,5.55-22.82q.88-5.81-5.77-5.59H703.58l-6.88,28.41Z" transform="translate(-15.08 -38.33)"/><path class="cls-2" d="M567.06,131s74.13,4.61,162.25,4.2l88.6,1.85s72.9-2.55,103.25,8.79c0,0,24.11,4.83,42,28.09,0,0,13.05,12.76,16.45,49.07,0,0,4-63,50.78-82,0,0,7.94-5.29,42.55-10,0,0-58.72.66-78.29-42.74,0,0-11.07-15.88-15-49.92,0,0-2.83,40.56-21.56,57.3,0,0-21.55,28.08-94.45,29.78l-168.5,2.27Z" transform="translate(-15.08 -38.33)"/></svg>