<svg id="Calque_1" data-name="Calque 1" xmlns="http://www.w3.org/2000/svg" xmlns:xlink="http://www.w3.org/1999/xlink" viewBox="0 0 1033.73 206.66"><defs><style>.cls-1{fill:none;}.cls-2{fill:#ea8c1a;}.cls-3{fill:#131313;}.cls-4{clip-path:url(#clip-path);}</style><clipPath id="clip-path" transform="translate(-26.7 -76.54)"><rect class="cls-1" x="26.7" y="76.54" width="1033.73" height="206.65"/></clipPath></defs><path id="Tracé_50" data-name="Tracé 50" class="cls-2" d="M884,76.54l-8.15,36.31H992.57l-150,134-9.16,36.32h176.45l9.16-36.32H902.3l150-134,8.14-36.3Z" transform="translate(-26.7 -76.54)"/><path id="Tracé_51" data-name="Tracé 51" class="cls-3" d="M261.84,152.77l-4.72,20.45h93.13L355,152.77ZM250.12,203.5l-4.74,20.25h93.13l4.74-20.25Z" transform="translate(-26.7 -76.54)"/><path id="Tracé_52" data-name="Tracé 52" class="cls-3" d="M365.2,108.48l-4.72,20.25H236.35l-23.66,95H187l23.66-95H174.27l4.54-20.25Z" transform="translate(-26.7 -76.54)"/><g class="cls-4"><g id="Groupe_11" data-name="Groupe 11"><path id="Tracé_53" data-name="Tracé 53" class="cls-3" d="M775.9,108.48a30.28,30.28,0,0,1,14.48,3.13,22,22,0,0,1,8.8,8.33,28,28,0,0,1,3.6,11.83,45.84,45.84,0,0,1-.95,13.62,58.26,58.26,0,0,1-10.69,23.09,36.18,36.18,0,0,1-20,12.69l23.09,42.59H763.41l-35.58-59.44h32.56a10.58,10.58,0,0,0,5.77-1.89,26.56,26.56,0,0,0,5.39-4.64,35.22,35.22,0,0,0,4.27-5.87,20.93,20.93,0,0,0,2.35-5.58,13.19,13.19,0,0,0,.38-4.64,19.68,19.68,0,0,0-1-5.2,10.79,10.79,0,0,0-2.56-4.17,5.61,5.61,0,0,0-4.16-1.7H702.08l5.11-22.15Z" transform="translate(-26.7 -76.54)"/><path id="Tracé_54" data-name="Tracé 54" class="cls-3" d="M31.81,203.5h70a10.56,10.56,0,0,0,4.73-1.23,20.38,20.38,0,0,0,4.64-3.22,23.12,23.12,0,0,0,3.69-4.27,14.62,14.62,0,0,0,2.08-4.54,13.87,13.87,0,0,0-.85-9.75,7.81,7.81,0,0,0-7.67-4.45H68.91a26.63,26.63,0,0,1-12.58-2.74,20.89,20.89,0,0,1-8.15-7.37,25.55,25.55,0,0,1-3.69-10.6,34.5,34.5,0,0,1,.76-12.4,45.32,45.32,0,0,1,6-13.72,46,46,0,0,1,22.53-18.08,40.35,40.35,0,0,1,14.38-2.65h71l-4.54,20.26H82.35a8.36,8.36,0,0,0-4.45,1.32,17.27,17.27,0,0,0-4.07,3.5,25.13,25.13,0,0,0-3.22,4.64,20.16,20.16,0,0,0-1.89,4.73,9.84,9.84,0,0,0-.19,4.35A12.88,12.88,0,0,0,70,151.45a11.28,11.28,0,0,0,2.46,3.12,4.46,4.46,0,0,0,2.93,1.23H116a27.06,27.06,0,0,1,12.77,2.84,23.7,23.7,0,0,1,8.62,7.47,24.61,24.61,0,0,1,4.06,10.79,33.76,33.76,0,0,1-.85,13,45.76,45.76,0,0,1-4.73,11.55,50,50,0,0,1-8.33,11,45.65,45.65,0,0,1-11,8.14,26.21,26.21,0,0,1-12.49,3.22H26.7Z" transform="translate(-26.7 -76.54)"/><path id="Tracé_55" data-name="Tracé 55" class="cls-3" d="M390.09,108.48h25.74l-23.1,95h58.88l-22.15,20.25H361.89Z" transform="translate(-26.7 -76.54)"/><path id="Tracé_56" data-name="Tracé 56" class="cls-3" d="M492.12,108.48h25.74l-23.09,95h58.87l-22.15,20.25H463.92Z" transform="translate(-26.7 -76.54)"/><path id="Tracé_57" data-name="Tracé 57" class="cls-3" d="M649.74,173.22H602.8l-12.3,50.53H564.76L593,108.49h72.87q6,.18,13.44,8.7a28.4,28.4,0,0,1,4.54,11.93,50.08,50.08,0,0,1-.38,11.92l-20.26,82.71H637.63ZM654.85,153l4.73-19.46q.75-5-4.92-4.77H613.78L607.91,153Z" transform="translate(-26.7 -76.54)"/></g></g></svg>