<svg id="Calque_1" data-name="Calque 1" xmlns="http://www.w3.org/2000/svg" viewBox="0 0 2000 2000"><path d="M409.63,1458.21c107.46-61.8,213.27-122.77,319.21-183.53,45.18-25.91,93-43.33,146-41.84,50.94,1.44,89.46,28.58,100.89,70.82,8.28,30.57,1.3,59.73-18.7,82.25a312,312,0,0,1-66.38,55.88c-50,31.47-102,59.7-153.12,89.32-3.68,2.13-7.12,4.69-14.66,9.7l155.79,12.06c1.94.15,3.93-.06,5.85.22,97.2,14.13,178.92-26.19,256.49-76.17,59.52-38.36,115.91-81.55,174-122.23,36.13-25.33,76-38.58,120.74-36.48,41.72,2,69.8,21.46,84.52,61.27,34.38-10.5,69.48-15,105-5.87,42.47,10.94,68.88,41.6,63.76,78.39-2.19,15.72-10.39,32.46-20.65,44.74-12.67,15.16-29.48,27.4-46,38.76-140.25,96.59-280.43,193.28-421.6,288.5-34.32,23.16-72.11,41.21-108.51,61.24-25.62,14.09-53.16,19-82.5,19.17-195.87.83-391.73,2.49-587.59,3.61-11.51.07-20.29,1.34-28,12.07-11.67,16.26-29.84,22.66-49.57,22.82-48.81.41-97.62.71-146.42.27-31.14-.28-59-27-59.13-58.58q-.83-208.9.13-417.8c.16-32.79,27.83-57.93,61.2-58.49,44.89-.74,89.81-.16,134.67-1.69C372.54,1405.35,397.56,1420.45,409.63,1458.21Zm-.52,394.48c6.46.42,9.68.83,12.91.81,192-1.34,384-3,576-3.79,33.65-.14,64.84-7.43,92.62-25.34,113.07-72.88,226.13-145.78,338.09-220.34,63.84-42.52,125.83-87.87,187.88-133,8.34-6.06,12.14-18.37,18.05-27.78-9-5.6-17.29-13.64-27.07-16.34-33.45-9.22-64.25,1.15-93.25,17.27-92,51.14-183.56,103-275.81,153.69-15,8.23-32.56,16.34-49,16.52-84.44,1-169.18,3.28-253.27-2.56-85.94-6-171.33-20.38-256.78-32.38-10.56-1.48-25.8-8.93-28.5-17.06-3.26-9.79,1.17-26.19,8.33-34.51A212.16,212.16,0,0,1,707.7,1486c52.48-32.42,106.64-62.13,159.23-94.38,17.41-10.67,34.87-23.6,47.37-39.4,21.91-27.72,9.85-54.81-25.09-61.57-47-9.08-88.88,7.52-128.19,29.71-112.6,63.56-224.29,128.76-336.67,192.73-11.27,6.42-14.92,13.5-14.88,26.11.29,98.29-.14,196.58-.35,294.87C409.1,1839.81,409.11,1845.51,409.11,1852.69Zm-55.39-176.48h.15c0-65.07-.4-130.13.3-195.19.16-14.7-4.47-19-18.94-18.72-40.32,1-80.69,1.11-121,.25-15.35-.33-20.51,4.48-20.46,19.93.23,64.41-.84,128.82-.95,193.23-.12,63.76.77,127.53.25,191.28-.14,17,5.43,22.71,22.59,22.09,37-1.33,74.16-.62,111.24-1,26.8-.27,26.82-.46,26.82-26.44Q353.73,1768.92,353.72,1676.21Zm760.38-112c38.13,1,76.56-.5,113.5-22.63,68.49-41,139.14-78.48,208.8-117.59,6.15-3.45,12.46-7.34,17.21-12.41,16.33-17.44,12.77-30.44-10.1-35.86-34.87-8.27-65.54,4.06-93.71,22.79-31.93,21.22-62.76,44.09-94.13,66.18Q1184.84,1514.51,1114.1,1564.17Z"/><path d="M706.87,798.29c-9.86-24.83-19-49-29.33-72.64-1.92-4.39-8.81-8.65-13.82-9.21-12.21-1.35-24.71.06-37-.64-21.17-1.2-30.74-11.14-30.89-32q-.37-53.69,0-107.36C596,556,606.68,543.09,627.19,546c36.37,5.24,56.57-6.56,63.3-43.64,2.44-13.45,11.56-25.68,19.37-42.13-11.43-10.24-24.14-20.45-35.44-32-13.48-13.84-13.32-29.09.2-43q37.46-38.44,75.93-75.89c15.31-14.89,28.81-14.83,44.28.14C806,320.32,816,332.33,825.65,342.79l85.64-35.68c0-14.48-.39-30.65.1-46.8.6-20.1,9.89-30.1,30.07-30.49q53.67-1,107.36,0c20.72.4,30.49,11.2,31,32.06.36,15.56.08,31.13.08,45.09,25.74,11.4,49.78,22.49,74.28,32.45,4,1.61,11.29-.24,14.79-3.19,9.91-8.36,18.36-18.42,27.91-27.24,14.8-13.69,28.29-14,42.93.09q39.33,37.94,77.39,77.18c13.08,13.49,14.73,30.53-.16,41.05-33.8,23.86-35.2,49.78-13.86,82.14,6.57,10,8.75,22.8,13.51,35.89,15.19,0,30.73-.26,46.25.07,21.95.46,32.78,10.57,33.07,32q.7,52.69,0,105.4c-.25,21.37-10.6,31.45-32.71,32.95-7.77.53-15.61.16-23.41.18s-15.47,0-22,0L1282,801.75c9.37,8.08,21.81,17.53,32.71,28.51,16.62,16.73,16.4,30.27-.24,47.31q-36.13,37-73.19,73.12c-16.2,15.71-32,17.27-45.24-.64-22.39-30.18-43.14-27.88-76.22-14.55s-44.56,28.43-40.45,62.21c2.69,22.14-8.49,32.62-30.9,33.12q-53.65,1.2-107.35-.14c-21-.55-32-10.23-29.15-30.54,5.15-37-8.28-54.47-44.4-65.38-40.83-12.33-39.7-16.07-70.47,13.58-19,18.29-31.32,18.5-49.87.18q-35.4-35-70.36-70.43c-17.3-17.56-17.26-31-.34-48.6,9.93-10.3,20-20.44,30-30.68C707,798.38,707.17,797.68,706.87,798.29ZM966.41,287.15c0,15.23,0,28.18,0,41.13.09,17.62-9.68,26.3-25.51,32.29-33.15,12.52-66.25,25.47-98.24,40.62-16.1,7.63-28.45,7.44-40.19-5.27-9.2-10-17.66-20.62-27.34-32l-43.62,46.73c9.07,8,19,16.4,28.48,25.24,14,13.09,13.24,26.65,4.93,43.76-14.63,30.13-28.3,61.08-38.37,93-6.49,20.52-16.9,29.3-37.24,28.92-12.21-.23-24.42,0-37.39,0v57.81c12.72,0,24.29-.09,35.85,0,24.81.24,31,6.78,39.11,29.28a968.78,968.78,0,0,0,38.71,92.88c8.34,17.26,8.55,30.77-5.83,43.49-9.67,8.56-19.74,16.67-27.42,23.12l41.28,47.22c9.7-10.37,18.21-19.3,26.56-28.38,13.4-14.58,26.83-15.16,45.12-6.17,31.17,15.3,63.88,27.69,96.52,39.73,16.12,5.95,25.38,14.59,24.93,32.34-.35,13.45-.07,26.93-.07,40.71h58.78c0-13.54.43-25.82-.09-38.07-.87-20.13,8.74-29.45,27.86-35.87a711.52,711.52,0,0,0,92.86-38.69c18.14-9.11,31.68-8.94,45.14,5.76,8.65,9.45,17.32,18.87,22.27,24.26l47.89-39c-11.36-10.44-21-19.19-30.52-28-13.65-12.68-12.36-26-4.82-42.17,14.7-31.57,28.47-63.71,40.07-96.52,6.17-17.43,15.61-26.14,33.47-26.34,13.42-.15,26.84,0,40.6,0V600.45c-14.67,0-28.18-.12-41.69,0-17.39.2-26.17-8.15-32.17-24.83-12-33.34-26.07-66-40.81-98.23-7.17-15.68-7.34-28.69,5.4-40.56,10-9.28,20.51-17.93,30.22-26.36L1216,362.4c-8.81,10.88-15.9,21.09-24.45,29.89-18.18,18.74-24.9,17.51-47.76,6.57-30.17-14.43-61.53-26.62-93.09-37.78-16.9-6-27-14.57-26.86-33.07.1-13.41,0-26.82,0-40.86Z"/><path d="M521.28,630.85c0,41.63.16,83.26-.07,124.89-.12,24-10.31,34.51-34.5,34.58q-124.9.39-249.79,0c-24.12-.07-35-10.64-35-34.36q-.42-125.87,0-251.74c.09-23,10.78-33.2,33.79-33.25q125.86-.28,251.74,0c23.94.06,33.7,10.32,33.81,35C521.41,547.58,521.28,589.21,521.28,630.85ZM259.88,527.44V732h204V527.44Z"/><path d="M1661.69,787c-31.9,0-63.81-.53-95.69.21-18.3.42-29.28-6.91-34.84-24.35Q1501,668.31,1470,574c-4.87-14.69-1.17-25.75,10.44-34.26,54.57-40,109.38-79.63,164.06-119.47,12.06-8.78,23.91-8.8,35.92-.09q82.14,59.58,164.26,119.18c11.89,8.66,15.3,20.46,10.75,34.49q-30.93,95.32-61.91,190.64c-5,15.33-15.46,22.89-32.26,22.62C1728.09,786.6,1694.89,787,1661.69,787Zm-.5-55.45c22.78,0,45.58-.51,68.34.22,11.32.37,17.48-2.59,21.09-14.33,13.5-44,28.49-87.6,41.83-131.67,1.66-5.48-1.1-15.76-5.43-19q-56.76-43-115.18-83.75c-4.27-3-14.14-3.23-18.32-.31q-58.37,40.78-115.27,83.64c-4.35,3.29-7.41,13.38-5.78,18.71,13.58,44.68,28.75,88.87,42.58,133.48,3.08,9.94,7.63,13.49,17.79,13.23C1615.61,731.13,1638.41,731.53,1661.19,731.53Z"/><path d="M637.29,1010.92c70.13,64.85,148.28,106.27,237.12,127.82,8.81,2.14,17.85,3.41,26.56,5.87,15.85,4.48,24.38,15,22,31.8-2.19,15.65-15.88,24.79-33.45,21.68q-131.71-23.29-238.59-104c-28.26-21.32-54.16-45.78-82.13-69.66,1,10.48,2.57,20,2.83,29.6.47,17.62-9.93,30.26-25.55,30.85-16.83.64-27.56-7.59-29.16-24.66-4-42.68-8.22-85.37-10.6-128.15-1.35-24.24,18.34-37,40.57-27,36.68,16.46,72.72,34.34,109.16,51.34,15.15,7.07,25.25,17.46,20.4,35C671.79,1008.33,658.58,1014,637.29,1010.92Z"/><path d="M1350.22,247.1c-45.47-42.19-94.47-74.75-149.76-96.51-33.61-13.22-69.31-21-103.55-32.78-10.19-3.5-21.53-10.38-26.81-19.08-3.68-6-1-21.06,4.42-26.23,6.67-6.36,19.89-10.65,29-9,113.49,21.19,211.44,73,294.62,152.94,6.09,5.85,12.13,11.76,18.25,17.59.31.3,1.11.1,3.59.25,0-10.64-.33-21.3.08-31.93.61-15.74,12.45-28.48,26.8-27.59,15.3.95,25.89,9.26,27.44,25.21,4.07,42,8,84.09,11,126.21,1.76,24.75-18.51,39.27-41.35,29.1-38.52-17.14-76.4-35.73-114.4-54-12.72-6.12-17.72-17-15-30.72C1318,252.77,1331.9,248.43,1350.22,247.1Z"/><path d="M1027.24,1207.86c-18.45.77-31.77-9.67-32.89-25.59-1.12-15.77,8.25-27.91,27.15-29.23a588.24,588.24,0,0,0,177.57-40.72c14.74-5.85,28.72-1.08,35.62,14.91,6.56,15.16-.55,29.88-18.57,37.29A582.21,582.21,0,0,1,1027.24,1207.86Z"/><path d="M956,53.07c26.45-.57,39.73,8.82,40.71,25.83.95,16.5-11.23,27-34.08,29C906,112.69,851,124.44,798.23,146c-20.53,8.36-36.2,3-42.4-13.22q-9.48-24.84,22.83-38.2C836.78,70.48,897.41,57.4,956,53.07Z"/><path d="M702.29,184.76c-7.07,9.68-11.66,18-18.13,24.46-33.07,32.89-66.94,65-99.85,98-13.53,13.58-28.21,17-41.18,7-12.63-9.81-15.46-27.83-2.45-41.18,36.14-37.1,73.21-73.38,111.57-108.16,6.58-6,22.22-6,31.94-3.08C691.24,163.89,695.43,175.49,702.29,184.76Z"/><path d="M1316.28,1106.85c-7.36-7.18-19-13.35-20.86-21.72-2.11-9.32,1.51-23.56,8.08-30.52,16-16.93,36-30,52.73-46.27,17.7-17.19,33.63-36.21,50.13-54.61,13.69-15.25,27.24-17.93,40.8-7.63,14,10.64,16.52,27.85,2.09,42.61-35.83,36.65-73.14,71.87-110.32,107.17C1334.14,1100.42,1326.56,1102,1316.28,1106.85Z"/><path d="M809.87,629.47c.69-102.93,85-186.63,186.91-185.43,102.21,1.2,185.26,85.9,184.61,188.28-.64,100.91-85.53,184.82-186.46,184.3C892.08,816.09,809.18,732.25,809.87,629.47Zm184.66-128.9A130.11,130.11,0,0,0,865.2,631.24c.24,71.34,59,129,131.16,128.89,71.71-.15,129.8-59,129.12-130.77C1124.8,557,1067,500.15,994.53,500.57Z"/></svg>