<svg id="Calque_1" data-name="Calque 1" xmlns="http://www.w3.org/2000/svg" viewBox="0 0 2000 2000"><path d="M55.64,1546.73c14.73-34.19,40.64-45.27,77.55-45.22q865.11,1.18,1730.23.61c10.41,0,21.08-.59,31.17,1.43,25.82,5.14,45.55,30,46,57.21.41,27.6.28,55.22,0,82.83-.18,21.21-10.28,31.14-31.59,31.79-4.29.13-8.58,0-12.88,0H431c-6.13,0-12.32.4-18.39-.22-15.75-1.59-26-12.87-25.95-28,.05-15.51,9.77-25.89,26.19-27.3,7.31-.62,14.71-.37,22.07-.37q712.33,0,1424.67,0h25.82c0-18.54.57-35.53-.49-52.41-.21-3.34-6.21-7.56-10.38-9.07-4.34-1.58-9.69-.39-14.6-.39H137c-26.17,0-26.21,0-26.17,25.38,0,10.42.21,20.84.45,31.26,0,1.07.92,2.13,2.35,5.23H173c35.59,0,71.18-.29,106.76.19,19.37.26,29.94,10.49,30.08,27.22.15,17.31-11.29,28.27-31.17,28.35-63.81.26-127.62-.15-191.43.28-14.8.1-23.85-7.46-31.57-18.39Z"/><path d="M55.64,1896.5c11.37-13,25.86-15.21,42.52-15.2q899.88.46,1799.77.27c6.14,0,12.35-.42,18.39.38,14.69,2,23.18,10.75,24.14,25.49,1,15.85-7.57,25.41-22.47,29-5.24,1.26-11,.48-16.51.48q-903.57,0-1807.13.3c-16.88,0-30.1-3.47-38.71-18.64Z"/><path d="M888.82,57.29c91.63,2.25,180.9,13.76,264.81,53.15a377,377,0,0,1,107.5,76.06q107.17,107.56,214.8,214.71c23.88,23.74,39.6,50.94,42,85.22,2.54,35.61,21.21,59,55.21,70.22,6.38,2.1,12.36,5.6,18.84,7.16,68.82,16.49,111.8,68.06,156.78,116.35,18.61,20,17.16,52.41-2.37,72.17q-111.27,112.57-223.87,223.83c-21.12,20.84-53.22,20.85-75,.4-26.36-24.76-51.63-50.75-76.27-77.23-8.12-8.72-13.94-20.13-18.84-31.18-9.43-21.22-17.42-43.08-26.06-64.65-17.4-43.42-43.42-58-89-52-26.45,3.51-53.26,4.25-79.77,7.4-5.71.68-11.89,5.43-16,10q-149.57,162.5-298.69,325.4-131.85,143.79-263.79,287.49c-46.51,50.47-94.14,51-142.58,2.53Q353.29,1301,270,1217.68c-49.16-49.17-48-96.49,3.54-143.81q303.8-278.68,607.72-557.23c10.6-9.72,16.1-19.79,19.44-34.81,4.93-22.14,17.68-42.62,27.7-63.52,10.52-21.95,17.41-44.12,12.67-69-6.4-33.65-24.58-58-54.46-74.21-65.32-35.46-136.24-53.79-208.34-68.6-11.38-2.33-22.89-4.14-34.13-7-28.49-7.22-45.52-28.85-45.38-56.88.15-28.71,18.47-51.57,47.66-57,36.08-6.75,72.22-13.73,108.65-17.82C799.47,62.74,844.22,60.64,888.82,57.29ZM656.3,138.71c0,1.92,0,3.85-.07,5.77,23,4.84,46.12,9.32,69,14.58,65.17,15,129.05,33.87,187.85,66.61,56.18,31.27,84.92,79,85.19,144,.16,38.69-17.62,70.85-35.26,103-7.38,13.46-6.77,21.9,4.76,33.18Q1059.87,595.94,1150,688c14.24,14.56,28.54,17.8,47.79,14.28,23.94-4.37,48.67-9.18,72.66-7.65,57,3.65,89.23,40.6,109.64,90.33,3.53,8.59,6.72,17.32,10.06,26l7,3.37c18-20.05,35.51-40.67,54.32-60,20.41-20.94,37-23.4,50.24-9.58,13.59,14.16,9.67,28.26-11.15,50-23.62,24.68-46,50.52-66.77,73.44l60.67,60.3,216.17-214.68-60.58-61.94c-.84.33-2.24.49-3,1.27-11.56,11-23,22.05-34.53,33.09-17,16.32-34.21,18.24-46.46,5.21-12.63-13.44-10-28.84,8-46.17,7.25-7,14.75-13.68,24.17-22.4-18.58-7.37-33.45-12.74-47.88-19.09-46.09-20.3-72.09-56.3-77.25-105.8-2.44-23.44-11.1-41.82-27.47-58.08-69.2-68.76-138.64-137.3-206.84-207-46.76-47.82-102.42-79-166.4-96.3C976,113.28,887.93,111.51,799.62,119.86,751.68,124.39,704.06,132.32,656.3,138.71ZM928.8,549.63c-1.63,1.32-4.58,3.46-7.25,5.9q-308.35,283-616.63,566c-19.59,18-19.45,32,0,51.48Q392.6,1261,480.55,1348.63c20.71,20.64,34.24,20.21,54.16-1.49q280.54-305.57,561-611.23c3.58-3.9,6.68-8.24,8.67-10.72Z"/><path d="M1142,1805.09c-.26,19.66-6.71,29.14-20.22,32.71-13.29,3.51-26.36,0-30.88-12.78a615.84,615.84,0,0,1-22.1-78.83c-3-14.2,6.94-24.24,20.82-28.11,13.6-3.79,25.9,1.51,30.38,13.87C1129.3,1757.57,1135.87,1784.17,1142,1805.09Z"/><path d="M249.64,1839c-4.15-4.44-15.09-11.39-18.84-21.11-8.28-21.46-13.36-44.2-18.91-66.63-3.6-14.53,4.88-28.17,19.38-32.74,15.49-4.88,28,1.73,32.85,15.37a536.39,536.39,0,0,1,20.07,73.85C287.75,1825.55,274.32,1839.25,249.64,1839Z"/><path d="M854.54,1752.26c-.34-21.72,7.7-31,21.57-34.37,14.36-3.45,26.34,2.8,30.9,16.33a697.51,697.51,0,0,1,20.5,73.75c3.07,14.11-4.89,25.12-18.83,29.48-13.72,4.29-27.35.87-32.37-12.93C867,1798.92,860.44,1772.31,854.54,1752.26Z"/><path d="M640.21,1751.64c-.08-21.11,7.9-30.38,21.8-33.79,13.61-3.35,25.6,2.43,29.93,14.94A616.79,616.79,0,0,1,713.56,1810c2.64,12.85-6,23.55-19.2,27.54-13.85,4.19-27.45.65-32.41-13C652.63,1798.88,646.2,1772.22,640.21,1751.64Z"/><path d="M1573.55,1815.49c-7,6.77-13.77,17.26-23.37,21.71-13.12,6.08-27-.08-31.73-13.53a550,550,0,0,1-21.39-77.29c-2.65-13.65,6.92-24.26,20.94-28.28,13.82-4,26.08,1.79,30.5,13.78C1558,1757.48,1564.4,1784.19,1573.55,1815.49Z"/><path d="M1745.43,1716.62c4.88,5.21,16.3,12.53,20.38,22.78,8.27,20.78,12.92,43.06,18.38,64.89a27.7,27.7,0,0,1-18.31,33.33c-14.52,4.58-29.52-1.33-34.3-16.14a690.91,690.91,0,0,1-19.47-72.16C1708.54,1732,1721.94,1717.24,1745.43,1716.62Z"/><path d="M502.61,1816.09c-7.61,6.9-14.76,17.15-24.51,21.31-13.31,5.67-26.64-.9-31.31-14.5a590.28,590.28,0,0,1-20.91-75.57c-2.76-13.72,6-24.41,20-28.94,13.82-4.46,26.36.9,30.84,12.73C486.58,1757.19,493.22,1784.48,502.61,1816.09Z"/><path d="M1356.26,1804.87c-.4,20-6.75,30.15-21.5,33.25-14.36,3-26.48-2.07-31.14-15.86a685.48,685.48,0,0,1-20.8-73.65c-3-14,5.13-24.59,18.8-29.72,14.44-5.43,27.47,0,32.31,12.6C1343.67,1756.92,1350,1783.65,1356.26,1804.87Z"/></svg>