<svg id="Calque_1" data-name="Calque 1" xmlns="http://www.w3.org/2000/svg" viewBox="0 0 2000 2000"><path d="M1160.23,1225.14c74.52,0,146.12,0,217.72,0,2.55,0,5.1-.63,9.52-1.2v-24.41q0-354.94,0-709.9c0-33.9,9.38-43.34,43.06-43.35q120.68,0,241.36,0c29.51,0,40.06,10.61,40.07,40.25q.06,356,0,711.93v26.27h258.56v63.81H25.65v-62.69H284v-22.77q0-130.82,0-261.65c0-30.06,10.31-40.72,39.53-40.75q122.7-.13,245.42,0c29.16,0,39.51,10.75,39.53,40.79q.09,129.81,0,259.62v23H835.71v-22.8q0-242.38,0-484.76c0-33.66,9.46-43,43.35-43q119.67,0,239.34,0c32,0,41.8,10,41.81,42.6q0,242.37,0,484.76Zm293.49-713.08v711.53h192.39V512.06ZM902,739.22v484.34h192.3V739.22ZM542.15,1224.3V967.13H349.91V1224.3Z"/><path d="M447.94,1352.53c18.39,0,35.88-.79,53.2.56,4.32.33,10.86,7.1,11.7,11.75,10.66,59.26-3.41,91-54.12,122.52-14.37,8.94-16.14,20.67-10.39,34.73,14,34.31,28.37,68.5,42.69,102.7,5.91,14.12,16.64,19.41,31.06,14.58,46.62-15.62,82.44-.34,112.88,36.1,15.08,18,33.17,33.67,50.52,49.72,29.73,27.48,40.26,60.3,27.23,98.91-6.39,19,0,29.75,17.06,36.74,32.41,13.32,64.84,26.58,97.2,40,17,7.08,29.35,4,38.25-13.69,18.31-36.45,48.74-52,89.34-50.31,28.33,1.15,56.77,1,85.11,0,39.77-1.39,69,14.5,88,49.49,11.56,21.26,18.24,23.71,40.64,14.72q47.84-19.2,95.47-38.9c20.71-8.62,24.39-16.53,18-37.75-11.67-38.87-2.24-71.37,27.56-99,20.28-18.81,39.78-38.56,58.58-58.85,27.51-29.67,59.86-39.71,98.87-28.13,22.48,6.68,29.59,3.16,39-19.12,13.64-32.27,26.68-64.81,40.59-97,6.24-14.43,3.12-26.35-10.16-32.69-45.67-21.79-60.39-58.75-55.32-106.52.79-7.37.54-14.85.93-22.27.06-1.21,1-2.38,2-4.68h61.72c0,14.17.53,28.08-.15,41.93-.69,14.4,4.54,23.89,17.58,31,48.88,26.75,63.79,69.72,42.83,121.48-13.4,33.11-26.92,66.18-40.92,99.05-20,46.95-63.76,68-112.47,52.93-16-5-26.46-1.39-37.69,10.09-20.28,20.74-41.5,40.64-63.29,59.8-11.71,10.28-14.87,20.33-10.22,35.54,15.38,50.27-5.17,93.55-53.33,114-33.49,14.2-67.2,27.92-101,41.46-47.8,19.16-91.07,4-114.86-41.26-7.71-14.66-17.64-20.27-33.76-19.79-28.34.85-56.83-1.25-85,1-10.08.79-23.28,8.14-28.53,16.56-30.64,49.23-70.23,63.08-124.27,40.89Q754.74,1942,709,1923.11c-52.76-21.81-72.6-61.53-57.49-116.77,3.72-13.56.21-23.19-9.45-32.6q-31.93-31.07-62.76-63.27c-9.48-9.91-19.35-12.64-32.7-8.87-55.1,15.58-95-4-117-56.76-13.49-32.34-27-64.66-40.07-97.19-19.54-48.75-4.6-92.08,41-117,14.5-7.91,20.41-17.4,17.82-34.19C446.32,1383.34,447.94,1369.64,447.94,1352.53Z"/><path d="M1677.68,122,1568.26,89.16c6.61-22.73,12.71-43.69,19.1-65.63,67.65,21,133.31,40.94,198.62,62,22.78,7.32,30.86,27.68,19.3,48.7-32.8,59.65-66.63,118.73-101.36,180.36l-57.29-32.7,55.19-99.26L193.36,788.28c-8.22-20.06-16-39-24.9-60.82Z"/><path d="M639.68,1355.83h65.61c4.44,94.91,41,173.82,117.33,231.9,55.26,42.06,118.4,61.94,187.42,58.75,140.19-6.47,271.82-111.85,280.85-290.11h64.62c-3.42,120-50.49,217.92-147.88,287.12-120.25,85.45-250.13,94.35-379.91,24.74C706,1603,646.58,1495.72,639.68,1355.83Z"/></svg>